<svg class="custom-icon" xmlns="http://www.w3.org/2000/svg" viewBox="0 0 100 100" style="height:200px;width:200px"><path class="outer-shape" d="M0 0h100v100H0z"/><path class="inner-shape" d="M37.75 53.063a3.062 3.062 0 1 1 6.125 0 3.062 3.062 0 0 1-6.125 0zm18.375 0a3.062 3.062 0 1 1 6.125 0 3.062 3.062 0 0 1-6.125 0zm.149 6.544a1.818 1.818 0 1 1 2.25 2.858c-2.196 1.73-5.543 2.848-8.524 2.848s-6.329-1.118-8.525-2.849a1.819 1.819 0 0 1 2.251-2.856c1.264.996 3.767 2.068 6.274 2.068s5.01-1.073 6.274-2.069zM74.5 46.938a6.125 6.125 0 0 0-11.477-2.975c-3.149-1.722-6.985-2.835-11.163-3.091l3.655-8.208 6.995 2.019a4.595 4.595 0 1 0 .288-3.703l-7.796-2.25a1.818 1.818 0 0 0-2.165 1.008l-4.966 11.15c-4.074.287-7.812 1.389-10.892 3.074a6.125 6.125 0 1 0-7.824 8.58 11.218 11.218 0 0 0-.592 3.584c0 8.457 9.597 15.313 21.437 15.313 11.84 0 21.438-6.856 21.438-15.313 0-1.234-.206-2.434-.592-3.583a6.123 6.123 0 0 0 3.654-5.604zm-7.656-15.503a1.723 1.723 0 1 1 0 3.446 1.723 1.723 0 0 1 0-3.447zM28.562 46.938a3.066 3.066 0 0 1 3.063-3.063c1.22 0 2.276.718 2.768 1.754-1.6 1.213-2.927 2.614-3.908 4.15a3.068 3.068 0 0 1-1.923-2.842zM50 67.8c-9.831 0-17.8-5.227-17.8-11.675S40.168 44.45 50 44.45s17.8 5.226 17.8 11.675S59.831 67.8 50 67.8zM69.514 49.78c-.98-1.537-2.307-2.937-3.907-4.151a3.067 3.067 0 0 1 2.768-1.754 3.066 3.066 0 0 1 3.063 3.063 3.067 3.067 0 0 1-1.924 2.842z" fill="#fff"/></svg>