<svg xmlns="http://www.w3.org/2000/svg" viewBox="0 0 174.057 174.057"><g fill="#010002"><path d="M168.295 104.384a82.684 82.684 0 0 0 1.664-16.481c0-45.237-36.812-82.038-82.056-82.038-4.255 0-8.553.336-12.791.995A48.78 48.78 0 0 0 50.143 0C23.141 0 1.174 21.971 1.174 48.973A49.001 49.001 0 0 0 7.28 72.64a82.464 82.464 0 0 0-1.417 15.264c0 45.244 36.812 82.052 82.042 82.052 4.66 0 9.319-.401 13.897-1.174a49.15 49.15 0 0 0 22.124 5.275c26.999 0 48.959-21.967 48.959-48.969-.005-7.247-1.548-14.201-4.59-20.704zm-44.37 63.081a42.53 42.53 0 0 1-20.042-5.028l-1.013-.544-1.142.208a76.484 76.484 0 0 1-13.822 1.267c-41.597 0-75.449-33.852-75.449-75.456 0-5.132.519-10.232 1.517-15.171l.258-1.242-.632-1.092a42.303 42.303 0 0 1-5.826-21.43C7.774 25.611 26.781 6.6 50.148 6.6a42.236 42.236 0 0 1 22.54 6.503l1.07.673 1.245-.215a76.693 76.693 0 0 1 12.902-1.102c41.608 0 75.46 33.845 75.46 75.446 0 5.451-.591 10.898-1.746 16.205l-.24 1.127.523 1.034c2.91 5.88 4.391 12.207 4.391 18.818-.009 23.362-19.02 42.376-42.368 42.376z"/><path d="M118.224 88.934c-3.278-2.144-7.39-4.008-12.197-5.554-4.964-1.585-10.651-3.078-16.906-4.427-5.39-1.242-9.044-2.144-11.22-2.749a39.862 39.862 0 0 1-7.29-2.824c-2.684-1.356-4.846-3.028-6.42-4.967-1.829-2.215-2.756-4.882-2.756-7.909 0-4.781 2.452-8.815 7.279-11.971 4.277-2.809 9.842-4.234 16.538-4.234 7.383 0 12.73 1.346 16.362 4.112 3.335 2.545 6.213 6.07 8.536 10.486 1.621 2.784 2.827 4.141 3.529 4.774.562.487 1.757.773 3.267.773 1.764 0 3.124-.562 4.277-1.757 1.192-1.245 1.754-2.491 1.754-3.937 0-2.029-.626-4.209-1.84-6.478-1.256-2.341-3.357-4.681-6.256-6.936-2.931-2.298-6.75-4.18-11.313-5.597-4.678-1.446-10.329-2.18-16.799-2.18-8.178 0-15.332 1.113-21.273 3.314-5.665 2.086-10.014 5.068-12.923 8.868-2.827 3.675-4.255 7.949-4.255 12.712 0 5.007 1.328 9.205 3.94 12.487 2.774 3.471 6.635 6.277 11.467 8.335 5.247 2.219 11.86 4.191 19.669 5.859 6.084 1.278 11.105 2.52 14.917 3.704 4.223 1.338 7.734 3.296 10.443 5.819 3.131 2.949 4.724 6.764 4.724 11.345 0 5.744-2.745 10.518-8.145 14.197-4.903 3.357-11.238 5.053-18.835 5.053-5.522 0-10.135-.855-13.7-2.541-3.622-1.714-6.503-3.976-8.575-6.714-1.84-2.423-3.575-5.483-5.146-9.09-.938-2.208-2.011-3.829-3.196-4.839-.92-.777-2.044-1.145-3.511-1.145-1.961 0-3.418.519-4.595 1.621-1.102 1.041-1.61 2.172-1.61 3.579 0 3.525 1.378 7.294 4.094 11.216 2.827 4.087 6.574 7.408 11.127 9.863 6.614 3.504 15.249 5.29 25.685 5.29 8.718 0 16.312-1.321 22.583-3.926 6.041-2.505 10.647-5.98 13.707-10.304 3.01-4.262 4.545-9.151 4.545-14.523 0-4.506-.855-8.299-2.53-11.277-1.691-3.011-4.103-5.545-7.152-7.528z"/></g></svg>